<?xml version="1.0" standalone="no"?>
<!DOCTYPE svg PUBLIC "-//W3C//DTD SVG 20010904//EN"
 "http://www.w3.org/TR/2001/REC-SVG-20010904/DTD/svg10.dtd">
<svg version="1.0" xmlns="http://www.w3.org/2000/svg"
 width="980.000000pt" height="818.000000pt" viewBox="0 0 980.000000 818.000000"
 preserveAspectRatio="xMidYMid meet">

<g transform="translate(0.000000,818.000000) scale(0.100000,-0.100000)"
fill="#000000" stroke="none">
<path d="M360 8167 c-83 -19 -146 -54 -215 -118 -186 -175 -194 -449 -18 -640
84 -91 139 -112 598 -235 220 -59 401 -107 402 -108 0 -1 362 -1301 802 -2891
714 -2574 800 -2891 785 -2900 -167 -102 -269 -223 -325 -385 -30 -89 -38
-278 -15 -370 56 -223 229 -411 447 -485 73 -25 99 -29 204 -29 99 -1 133 3
195 22 118 37 195 85 290 181 122 123 177 242 195 424 l7 67 1629 0 1629 0 0
-39 c0 -68 29 -192 60 -259 71 -151 178 -261 325 -332 193 -93 393 -92 592 6
160 77 278 213 340 389 25 72 28 93 27 210 0 114 -3 140 -27 211 -45 135 -144
266 -265 352 -64 46 -178 89 -277 107 -409 71 -1801 174 -3745 275 -217 12
-395 22 -395 23 -5 8 -105 407 -105 416 0 8 550 11 2105 11 2105 0 2106 0
2167 21 123 41 226 132 279 244 15 33 229 769 475 1636 l448 1576 205 6 c171
4 217 9 272 26 354 112 465 556 205 817 -60 59 -137 107 -221 135 -33 12 -646
15 -3624 19 l-3583 5 -153 526 c-93 322 -164 547 -181 580 -40 73 -120 150
-196 186 -83 41 -1137 324 -1222 329 -34 2 -86 -2 -116 -9z m3195 -2687 c3 -6
123 -533 265 -1172 192 -861 256 -1165 248 -1175 -8 -10 -95 -13 -424 -13
l-414 0 -14 23 c-21 33 -667 2314 -660 2332 5 13 66 15 499 15 319 0 496 -4
500 -10z m2461 -4 c5 -13 -411 -2330 -422 -2347 -7 -12 -631 -12 -638 0 -11
17 -427 2334 -422 2347 8 21 1474 21 1482 0z m1978 -2 c5 -14 -628 -2272 -654
-2331 l-10 -23 -419 0 c-390 0 -421 1 -429 18 -6 12 72 380 249 1171 142 634
260 1160 263 1167 4 12 90 14 500 14 445 0 494 -2 500 -16z"/>
</g>
</svg>
